<?xml version="1.0" encoding="UTF-8"?>
<svg width="54px" height="58px" viewBox="0 0 54 58" version="1.1" xmlns="http://www.w3.org/2000/svg" xmlns:xlink="http://www.w3.org/1999/xlink">
    <!-- Generator: sketchtool 61.2 (101010) - https://sketch.com -->
    <title>EA71AA5B-E313-4335-B81E-F2B2B6F2B2EE</title>
    <desc>Created with sketchtool.</desc>
    <g id="Page-1" stroke="none" stroke-width="1" fill="none" fill-rule="evenodd">
        <g id="1.0.1" transform="translate(-948.000000, -332.000000)" fill-rule="nonzero">
            <g id="Group-34-Copy-4" transform="translate(910.000000, 296.000000)">
                <g id="gas" transform="translate(38.000000, 36.000000)">
                    <path d="M48.807,17.730668 C47.8769672,17.730668 47.124,16.9777008 47.124,16.047668 L47.124,11.781 C47.124,10.852282 46.369718,10.098 45.441,10.098 C44.5109672,10.098 43.758,9.34503276 43.758,8.415 C43.758,7.48496724 44.5109672,6.732 45.441,6.732 C48.2249625,6.732 50.49,8.9970375 50.49,11.781 L50.49,16.047668 C50.49,16.9777008 49.7370328,17.730668 48.807,17.730668 Z" id="Path" fill="#4F5872"></path>
                    <path d="M45.441,50.6022 C42.6570375,50.6022 40.392,48.3371625 40.392,45.5532 L40.392,38.8212 C40.392,36.0372375 38.1269625,33.7722 35.343,33.7722 C34.4129672,33.7722 33.66,33.0192328 33.66,32.0892 C33.66,31.1591672 34.4129672,30.4062 35.343,30.4062 C39.9826453,30.4062 43.758,34.1815547 43.758,38.8212 L43.758,45.5532 C43.758,46.481918 44.512282,47.2362 45.441,47.2362 C46.369718,47.2362 47.124,46.481918 47.124,45.5532 L47.124,25.245 C47.124,24.3149672 47.8769672,23.562 48.807,23.562 C49.7370328,23.562 50.49,24.3149672 50.49,25.245 L50.49,45.5532 C50.49,48.3371625 48.2249625,50.6022 45.441,50.6022 Z" id="Path" fill="#D5D5EA"></path>
                    <path d="M37.026,25.245 L37.026,55.7634 L6.732,55.7634 L6.732,25.245 C6.732,24.302257 7.472257,23.562 8.415,23.562 L35.343,23.562 C36.285743,23.562 37.026,24.302257 37.026,25.245 Z" id="Path" fill="#4F5872"></path>
                    <path d="M37.026,25.245 L37.026,55.7634 L21.879,55.7634 L21.879,23.562 L35.343,23.562 C36.285743,23.562 37.026,24.302257 37.026,25.245 Z" id="Path" fill="#4F5872"></path>
                    <path d="M35.343,0 L8.415,0 C5.620957,0 3.366,2.254957 3.366,5.049 L3.366,21.879 C3.366,24.6726047 5.620957,26.928 8.415,26.928 L35.343,26.928 C38.137043,26.928 40.392,24.6726047 40.392,21.879 L40.392,5.049 C40.392,2.254957 38.137043,0 35.343,0 Z" id="Path" fill="#D5D5EA"></path>
                    <path d="M52.173,26.928 L45.441,26.928 C44.5109672,26.928 43.758,26.1750328 43.758,25.245 L43.758,21.879 C43.758,17.2393547 47.5333547,13.464 52.173,13.464 C53.1030328,13.464 53.856,14.2169672 53.856,15.147 L53.856,25.245 C53.856,26.1750328 53.1030328,26.928 52.173,26.928 Z" id="Path" fill="#00B3F8"></path>
                    <path d="M23.2591476,31.146457 C22.9562953,30.6753047 22.4176476,30.473257 21.879,30.473257 C21.3403524,30.473257 20.8017047,30.6753047 20.4988524,31.146457 C19.3882476,32.7286524 16.83,36.6670476 16.83,38.8212 C16.83,41.6148047 19.084957,43.8702 21.879,43.8702 C24.673043,43.8702 26.928,41.6148047 26.928,38.8212 C26.928,36.6670476 24.3697524,32.7286524 23.2591476,31.146457 L23.2591476,31.146457 Z" id="Path" fill="#FDBF00"></path>
                    <path d="M43.758,55.7634 C43.758,56.7057047 43.017743,57.4464 42.075,57.4464 L1.683,57.4464 C0.740257003,57.4464 0,56.7057047 0,55.7634 C0,54.820657 0.740257003,54.0804 1.683,54.0804 L42.075,54.0804 C43.017743,54.0804 43.758,54.820657 43.758,55.7634 Z" id="Path" fill="#5A5A5A"></path>
                    <path d="M30.294,48.9192 C30.294,49.8615047 29.553743,50.6022 28.611,50.6022 L15.147,50.6022 C14.204257,50.6022 13.464,49.8615047 13.464,48.9192 C13.464,47.976457 14.204257,47.2362 15.147,47.2362 L28.611,47.2362 C29.553743,47.2362 30.294,47.976457 30.294,48.9192 Z" id="Path" fill="#8A8A96"></path>
                    <path d="M40.392,5.049 L40.392,21.879 C40.392,24.6726047 38.137043,26.928 35.343,26.928 L21.879,26.928 L21.879,0 L35.343,0 C38.137043,0 40.392,2.254957 40.392,5.049 Z" id="Path" fill="#D6D4E1"></path>
                    <path d="M21.879,43.8702 L21.879,30.473257 C22.4176476,30.473257 22.9562953,30.6753047 23.2591476,31.146457 C24.3697524,32.7286524 26.928,36.6670476 26.928,38.8212 C26.928,41.6148047 24.673043,43.8702 21.879,43.8702 Z" id="Path" fill="#FF9F00"></path>
                    <path d="M43.758,55.7634 C43.758,56.7057047 43.017743,57.4464 42.075,57.4464 L21.879,57.4464 L21.879,54.0804 L42.075,54.0804 C43.017743,54.0804 43.758,54.820657 43.758,55.7634 Z" id="Path" fill="#444444"></path>
                    <path d="M30.294,48.9192 C30.294,49.8615047 29.553743,50.6022 28.611,50.6022 L21.879,50.6022 L21.879,47.2362 L28.611,47.2362 C29.553743,47.2362 30.294,47.976457 30.294,48.9192 Z" id="Path" fill="#8A8A96"></path>
                    <path d="M31.977,6.732 L11.781,6.732 C10.838257,6.732 10.098,7.472257 10.098,8.415 L10.098,18.513 C10.098,19.4553047 10.838257,20.196 11.781,20.196 L31.977,20.196 C32.919743,20.196 33.66,19.4553047 33.66,18.513 L33.66,8.415 C33.66,7.472257 32.919743,6.732 31.977,6.732 Z" id="Path" fill="#DEECF1"></path>
                    <path d="M31.977,20.196 L21.879,20.196 L21.879,6.732 L31.977,6.732 C32.919743,6.732 33.66,7.472257 33.66,8.415 L33.66,18.513 C33.66,19.4553047 32.919743,20.196 31.977,20.196 Z" id="Path" fill="#C6E2E7"></path>
                </g>
            </g>
        </g>
    </g>
</svg>