<?xml version="1.0" encoding="UTF-8"?>
<svg width="53px" height="61px" viewBox="0 0 53 61" version="1.1" xmlns="http://www.w3.org/2000/svg" xmlns:xlink="http://www.w3.org/1999/xlink">
    <!-- Generator: sketchtool 61.2 (101010) - https://sketch.com -->
    <title>5CF0A777-4067-41A1-AA5D-157EC5DD2971</title>
    <desc>Created with sketchtool.</desc>
    <defs>
        <polygon id="path-1" points="0.000170967742 0.249479775 52.6054919 0.249479775 52.6054919 37 0.000170967742 37"></polygon>
    </defs>
    <g id="Page-1" stroke="none" stroke-width="1" fill="none" fill-rule="evenodd">
        <g id="1.0.1" transform="translate(-1014.000000, -1607.000000)">
            <g id="Group-10" transform="translate(1014.000000, 1607.000000)">
                <path d="M50.9505107,14 L1.04948934,14 C0.470242206,14 0,14.4478033 0,15.0008061 L0,21 L52,21 L52,15.0008061 C52,14.4478033 51.5301803,14 50.9505107,14" id="Fill-1" fill="#8A8A96"></path>
                <g id="Group-5" transform="translate(0.000000, 24.000000)">
                    <mask id="mask-2" fill="white">
                        <use xlink:href="#path-1"></use>
                    </mask>
                    <g id="Clip-4"></g>
                    <path d="M50.7352758,37.0000416 L1.87013065,37.0000416 C0.837485484,37.0000416 0.000170967742,36.1856258 0.000170967742,35.1808056 L0.000170967742,0.249479775 L52.6056629,0.249479775 L52.6056629,35.1808056 C52.6056629,36.1856258 51.7683484,37.0000416 50.7352758,37.0000416" id="Fill-3" fill="#D5D5EA" mask="url(#mask-2)"></path>
                </g>
                <polygon id="Fill-6" fill="#424A60" points="21 61 33 61 33 14 21 14"></polygon>
                <path d="M22.2256495,9.69050131 L15.3785823,9.69050131 C13.0460092,9.69050131 11.1543905,7.86495593 11.1543905,5.61385835 C11.1543905,3.78912977 12.6871518,2.30990709 14.5779241,2.30990709 C18.8012695,2.30990709 22.2256495,5.61426675 22.2256495,9.69050131 M13.5656753,0 L13.5656753,0 C10.4916892,0 8,2.40506415 8,5.3716775 C8,9.03256985 11.0748325,12 14.8682262,12 L26,12 C26,5.3729027 20.4330551,0 13.5656753,0" id="Fill-8" fill="#424A60"></path>
                <path d="M36.8992806,9.69050131 L30.0524757,9.69050131 C30.0524757,5.61426675 33.4769361,2.30990709 37.7008041,2.30990709 C39.5911976,2.30990709 41.1239949,3.78912977 41.1239949,5.61385835 C41.1239949,7.86495593 39.232755,9.69050131 36.8992806,9.69050131 M38.4341938,0 C31.5666526,0 26,5.3729027 26,12 L37.1316124,12 C40.9250952,12 44,9.03256985 44,5.3716775 C44,2.40506415 41.5082522,0 38.4341938,0" id="Fill-9" fill="#424A60"></path>
            </g>
        </g>
    </g>
</svg>