<?xml version="1.0" encoding="UTF-8"?>
<svg width="80px" height="57px" viewBox="0 0 80 57" version="1.1" xmlns="http://www.w3.org/2000/svg" xmlns:xlink="http://www.w3.org/1999/xlink">
    <!-- Generator: sketchtool 61.2 (101010) - https://sketch.com -->
    <title>DA5140C2-FEFC-41BA-827C-B8B7578F716A</title>
    <desc>Created with sketchtool.</desc>
    <g id="Page-1" stroke="none" stroke-width="1" fill="none" fill-rule="evenodd">
        <g id="1.0.1" transform="translate(-331.000000, -1611.000000)">
            <g id="id-card-2" transform="translate(331.000000, 1611.000000)">
                <g id="id-card">
                    <path d="M35.5555556,45.75 L35.5555556,39 L40,39 L40,32.25 L35.5555556,32.25 L35.5555556,25.5 L40,25.5 L40,14.25 L0,14.25 L0,57 L40,57 L40,45.75 L35.5555556,45.75 Z M28.8888889,50.25 L6.66666667,50.25 L6.66666667,21 L28.8888889,21 L28.8888889,50.25 Z" id="XMLID_1005_" fill="#D5D5EA" fill-rule="nonzero"></path>
                    <polygon id="XMLID_1008_" fill="#D5D5EA" points="40 25.5 73.3333333 25.5 73.3333333 32.25 40 32.25 40 39 54.4444444 39 54.4444444 45.75 40 45.75 40 57 80 57 80 14.25 40 14.25"></polygon>
                    <rect id="Rectangle" fill="#8A8A96" x="0" y="0" width="80" height="14.25"></rect>
                    <polygon id="XMLID_1013_" fill="#424A60" points="5.71428571 19.95 31.4285714 19.95 31.4285714 51.3"></polygon>
                    <polygon id="XMLID_1013_" fill="#4F5872" points="5.71428571 19.95 31.4285714 51.3 5.71428571 51.3"></polygon>
                </g>
            </g>
        </g>
    </g>
</svg>