<?xml version="1.0" encoding="UTF-8"?>
<svg width="51px" height="59px" viewBox="0 0 51 59" version="1.1" xmlns="http://www.w3.org/2000/svg" xmlns:xlink="http://www.w3.org/1999/xlink">
    <!-- Generator: sketchtool 61.2 (101010) - https://sketch.com -->
    <title>C74259B2-6266-41C0-9879-C46657567749</title>
    <desc>Created with sketchtool.</desc>
    <g id="Page-1" stroke="none" stroke-width="1" fill="none" fill-rule="evenodd">
        <g id="1.0.1" transform="translate(-693.000000, -1607.000000)" fill-rule="nonzero">
            <g id="reward" transform="translate(693.000000, 1607.000000)">
                <polygon id="Path" fill="#8A8A96" points="12.7789974 25 0 48.9193655 11.604464 47.8560806 17.2210026 58 30 34.0824521"></polygon>
                <g id="Group" transform="translate(10.000000, 25.000000)" fill="#8A8A96">
                    <path d="M3.96512356,26.1062407 C4.34074667,25.3395082 3.94787556,24.4234358 3.16213333,24.0264104 L2.39172267,23.6366699 C1.621312,23.2196111 1.328096,22.2926115 1.74779733,21.5422699 C2.173248,20.7791798 3.173632,20.487785 3.97662222,20.8920953 L6.15370311,21.9902894 C6.82637511,22.3290358 7.66961067,22.0831715 8.01648711,21.4402817 L8.07014756,21.341936 C8.468768,20.7354706 8.23304533,19.934135 7.56995556,19.6008522 L1.05787733,16.315376 C0.264469333,15.9147082 -0.124568889,15.0022783 0.245304889,14.2337245 C0.653507556,13.4159979 1.68455467,13.0936424 2.51437511,13.5125224 L8.555008,16.5594191 C9.22768,16.8981656 10.0709156,16.6523012 10.4273742,16.0130539 L10.4618702,15.9292779 L10.4714524,15.9110657 C10.8566578,15.2408577 10.5864391,14.3994553 9.87543822,14.0406755 L6.48716444,12.3323736 C5.69375644,11.9317057 5.30471822,11.0192758 5.68034133,10.241616 C6.08471111,9.43299548 7.11959111,9.10153391 7.94941156,9.52041391 L11.6922276,11.4090163 C12.3917298,11.7623325 13.2272996,11.4672953 13.5895076,10.7970873 C13.5952569,10.7879812 13.5952569,10.7879812 13.5990898,10.7788751 C13.6048391,10.769769 13.6048391,10.769769 13.608672,10.760663 C13.9900444,10.099561 13.7792356,9.27637078 13.0778169,8.92487583 L9.03986844,6.88875478 C8.25604267,6.49355061 7.86700444,5.5811207 8.23687822,4.81256696 C8.64508089,3.99484035 9.676128,3.67248487 10.5059484,4.09136487 L20.4676267,9.11610365 L7.08126222,33.0833245 L3.397856,26.7108849 C3.62974578,26.5579026 3.83672178,26.368496 3.96512356,26.1062407 Z" id="Path"></path>
                    <polygon id="Path" points="27.4722311 0.0173015652 40.8585956 23.9845224 28.7025884 22.9191103 22.819104 33.0833245 9.43273956 9.11792487"></polygon>
                </g>
                <path d="M36.2070358,51.0630687 C35.8381809,50.3009476 36.2239731,49.3903848 36.9955574,48.9957473 L37.7520865,48.6083508 C38.5086156,48.1938004 38.7965483,47.272376 38.3844093,46.5265473 C37.9666246,45.7680467 36.984266,45.4784045 36.1957444,45.8802831 L34.0578911,46.9718722 C33.3973395,47.3085813 32.5692978,47.0641957 32.2286715,46.4251725 L32.1759779,46.3274183 C31.78454,45.7246004 32.0160153,44.9280843 32.6671573,44.596806 L39.06378,41.3310899 C39.842892,40.9328318 40.2249204,40.0258896 39.8617111,39.2619582 C39.4608636,38.4491497 38.4483944,38.128733 37.633526,38.5450937 L31.7017358,41.5736652 C31.0411843,41.9103743 30.2131425,41.6659887 29.8631067,41.030586 L29.8292323,40.9473139 L29.8198227,40.9292113 C29.4415582,40.2630341 29.7069079,39.4266922 30.4050977,39.0700702 L33.7323201,37.3720427 C34.5114321,36.9737846 34.8934605,36.0668424 34.5246055,35.2938597 C34.1275218,34.4901025 33.1112888,34.1606345 32.2964204,34.5769952 L28.6172802,36.4560491 C27.9303819,36.8072403 27.1098678,36.5139776 26.7541862,35.8478004 C26.7485405,35.8387491 26.7485405,35.8387491 26.7447766,35.8296978 C26.7410128,35.8206465 26.7391309,35.8206465 26.7353671,35.8115952 C26.3608664,35.1544694 26.5678768,34.3362301 27.256657,33.9868491 L31.221848,31.9629741 C31.9915504,31.5701468 32.3735788,30.6632046 32.0103696,29.8992732 C31.6095221,29.0864647 30.5970528,28.766048 29.7821844,29.1824087 L20,34.1769269 L33.1451632,58 L36.767846,51.6658866 C36.5363706,51.5120141 36.333124,51.3237467 36.2070358,51.0630687 Z" id="Path" fill="#8A8A96"></path>
                <path d="M47,20.9990999 C47,22.8064806 45.1312361,24.3510351 44.6741814,26.0180018 C44.202383,27.7425743 45.0169724,29.9909991 44.1212926,31.5013501 C43.2145551,33.0333033 40.8058032,33.4635464 39.5323161,34.7056706 C38.2588291,35.949595 37.820204,38.3006301 36.251843,39.1881188 C34.7055975,40.0612061 32.4055803,39.2655266 30.6381793,39.7281728 C28.9315961,40.1746175 27.3503343,42 25.5,42 C23.6496657,42 22.0684039,40.1746175 20.3618207,39.7281728 C18.5962626,39.2673267 16.2944025,40.0630063 14.748157,39.1881188 C13.179796,38.3024302 12.739328,35.949595 11.4676839,34.7056706 C10.1941968,33.4617462 7.78728785,33.0333033 6.87870735,31.5013501 C5.98487056,29.9909991 6.79945997,27.7443744 6.32581862,26.0180018 C5.86876393,24.3510351 4,22.8064806 4,20.9990999 C4,19.1917192 5.86876393,17.6471647 6.32581862,15.980198 C6.79761701,14.2556256 5.9830276,12.0072007 6.87870735,10.4968497 C7.78544488,8.96489649 10.1941968,8.53465347 11.4676839,7.29252925 C12.7411709,6.04860486 13.179796,3.69756976 14.748157,2.81008101 C16.2944025,1.9369937 18.5944197,2.73267327 20.3618207,2.270027 C22.0702469,1.82538254 23.6515087,0 25.501843,0 C27.3521773,0 28.9334391,1.82538254 30.6400223,2.27182718 C32.4055803,2.73267327 34.7074404,1.9369937 36.2536859,2.81188119 C37.822047,3.69756976 38.262515,6.05040504 39.5341591,7.29432943 C40.8076462,8.53825383 43.2145551,8.96669667 44.1231356,10.4986499 C45.0169724,12.0090009 44.202383,14.2556256 44.6760243,15.9819982 C45.1312361,17.6471647 47,19.1917192 47,20.9990999 Z" id="Path" fill="#D5D5EA"></path>
                <path d="M27.8379952,19.2035838 L15.0268787,19.2035838 C14.0300171,19.2035838 13.2137463,18.3958172 13.2137463,17.4093412 L13.2281936,17.2860317 L13.2281936,17.2592253 C13.2137463,16.2191364 14.0733589,15.3684795 15.1243978,15.3684795 L24.004051,15.3684795 C25.1815035,15.3684795 26.2180951,14.505313 26.2885255,13.3419146 C26.3445087,12.1231163 25.3602884,11.0955371 24.1286587,11.0955371 L14.723486,11.0955371 C13.6850885,11.0955371 12.9103537,10.2323706 12.922995,9.20479134 C12.922995,9.19049459 12.922995,9.19049459 12.922995,9.17798493 C12.922995,9.16547527 12.922995,9.16368818 12.922995,9.15117852 C12.9085478,8.1235993 13.6850885,7.26043277 14.723486,7.26043277 L24.5656886,7.26043277 C25.7286938,7.26043277 26.7670913,6.39726623 26.8357159,5.24637751 C26.891699,4.01328246 25.9074788,3 24.675849,3 L19.5073383,3 C17.8639613,3.2180255 15.8991326,2.66045209 14.5320597,3.44319938 C12.9952314,4.32244977 12.5654251,6.65818199 11.3175422,7.89306414 C10.0696592,9.12794629 7.71114244,9.55327473 6.82082943,11.074092 C5.9449637,12.5734641 6.74136945,14.8037577 6.27905682,16.5175811 C5.83119145,18.1724304 4,19.7057573 4,21.5 C4,23.2942427 5.83119145,24.8275696 6.27905682,26.4824189 C6.74136945,28.1944552 5.94315779,30.4265359 6.82082943,31.925908 C7.70933653,33.4467253 10.0696592,33.8738408 11.3175422,35.1069359 C12.5654251,36.341818 12.9952314,38.6757631 14.5320597,39.5568006 C15.8991326,40.3395479 17.8639613,39.7819745 19.5073383,40 L26.6208127,40 C27.783818,40 28.8222155,39.1368335 28.89084,37.9859447 C28.9468232,36.7528497 27.9626029,35.7395672 26.7309732,35.7395672 L16.3199093,35.7377801 C15.0918914,35.7377801 14.1040593,34.7209235 14.1690721,33.4914026 C14.2304729,32.3387268 15.2760941,31.4737732 16.4427111,31.4737732 L20.4789172,31.4737732 C21.6401165,31.4398184 22.5755772,30.4998068 22.5755772,29.3435568 C22.5755772,28.1658617 21.6058042,27.206192 20.4157103,27.206192 L14.2972916,27.206192 C13.30043,27.206192 12.4841592,26.3984254 12.4986065,25.4119494 L12.4986065,25.2582593 C12.4299819,24.28608 13.2191641,23.4640166 14.2015784,23.4640166 L27.7133875,23.4640166 C28.8890341,23.4640166 29.9274316,22.6008501 29.9978621,21.4499614 C30.0520393,20.2168663 29.069625,19.2035838 27.8379952,19.2035838 Z" id="Path" fill="#FFFFFF" opacity="0.25"></path>
                <path d="M26.5,37 C17.9527668,37 11,30.0453727 11,21.5 C11,12.9546273 17.9527668,6 26.5,6 C35.0472332,6 42,12.9546273 42,21.5 C42,30.0453727 35.0472332,37 26.5,37 Z" id="Path" fill="#424A60"></path>
                <path d="M41,21.1375812 C41,13.061289 34.4613261,6.45556703 26.2532435,6 L24.7960319,6 C23.8345727,6 22.9763952,6.69975096 22.9181818,7.63275223 C22.8731134,8.63135516 23.6843447,9.45502035 24.7040172,9.45502035 L33.3120819,9.45684262 C34.3279988,9.45684262 35.1448635,10.2805078 35.0904059,11.2791107 C35.0397039,12.2139343 34.1758929,12.9155075 33.210678,12.9155075 L29.8737384,12.9155075 C28.9141571,12.9428415 28.138605,13.7045496 28.138605,14.6430177 C28.138605,15.5978862 28.940447,16.3759947 29.9244404,16.3759947 L34.9833684,16.3759947 C35.8077446,16.3759947 36.4818928,17.0320112 36.4706257,17.8301646 L36.4706257,17.9522566 C36.5269612,18.7412987 35.8753472,19.4064265 35.0622381,19.4064265 L23.8909082,19.4064265 C22.9181818,19.4064265 22.0600044,20.1061775 22.001791,21.0391788 C21.9567226,22.0377817 22.7679538,22.8614469 23.7876264,22.8614469 L34.3787007,22.8614469 C35.2030769,22.8614469 35.8772251,23.5174634 35.8772251,24.3156168 L35.865958,24.4158416 L35.865958,24.4377088 C35.8772251,25.2814189 35.1673977,25.9702363 34.2979532,25.9702363 L26.9555594,25.9702363 C25.9828331,25.9702363 25.1246556,26.6699872 25.0664423,27.6139221 C25.0213739,28.6015914 25.8326051,29.4361902 26.8522777,29.4361902 L34.6284548,29.4361902 C35.4866322,29.4361902 36.1269791,30.1359412 36.115712,30.9687177 C36.115712,30.9796513 36.115712,30.9796513 36.115712,30.9905849 C36.115712,31.0015186 36.115712,31.0015186 36.115712,31.0124522 C36.1269791,31.8452287 35.4866322,32.5449797 34.6284548,32.5449797 L26.4917305,32.5449797 C25.5302713,32.5449797 24.6720938,33.2447306 24.6138804,34.1777319 C24.568812,35.1781571 25.3800432,36 26.3997158,36 L28.5460984,36 C35.6500052,34.5622305 41,28.4448764 41,21.1375812 Z" id="Path" fill="#4F5872"></path>
                <path d="M36.0257231,17.6562914 L28.6930649,17.6562914 L26.4271298,10.6736922 C26.1357405,9.77543593 24.8666635,9.77543593 24.5752742,10.6736922 L22.309339,17.6562914 L14.9747639,17.6562914 C14.0315827,17.6562914 13.6405076,18.8635632 14.4034875,19.4182556 L20.3367102,23.7348762 L18.0707751,30.7174753 C17.7793858,31.6157316 18.8049994,32.3623592 19.5679793,31.8076667 L25.499285,27.4929656 L31.4325077,31.8095861 C32.1954875,32.3642785 33.2211012,31.617651 32.9297119,30.7193947 L30.6637767,23.7367955 L36.5969995,19.420175 C37.3599793,18.8654825 36.9669872,17.6562914 36.0257231,17.6562914 Z" id="Path" fill="#FFFFFF"></path>
            </g>
        </g>
    </g>
</svg>