<?xml version="1.0" encoding="UTF-8"?>
<svg width="60px" height="72px" viewBox="0 0 60 72" version="1.1" xmlns="http://www.w3.org/2000/svg" xmlns:xlink="http://www.w3.org/1999/xlink">
    <!-- Generator: sketchtool 61.2 (101010) - https://sketch.com -->
    <title>A7A7B395-228F-4609-8F53-EDED5FB89992</title>
    <desc>Created with sketchtool.</desc>
    <g id="Page-1" stroke="none" stroke-width="1" fill="none" fill-rule="evenodd">
        <g id="1.0.1" transform="translate(-605.000000, -324.000000)" fill-rule="nonzero">
            <g id="Group-34-Copy-2" transform="translate(570.000000, 296.000000)">
                <g id="commerce-and-shopping" transform="translate(35.000000, 28.000000)">
                    <path d="M42.09604,19.17958 L37.89604,19.17958 L37.89604,12.27604 C37.89604,7.82292 34.27312,4.2 29.82,4.2 C25.36688,4.2 21.74396,7.82292 21.74396,12.27604 L21.74396,19.17958 L17.54396,19.17958 L17.54396,12.27604 C17.54396,5.50704 23.051,0 29.82,0 C36.589,0 42.09604,5.50704 42.09604,12.27604 L42.09604,19.17958 L42.09604,19.17958 Z" id="Path" fill="#D5D5EA"></path>
                    <path d="M42.09604,19.17958 L42.09604,12.27604 C42.09604,5.50704 36.589,0 29.82,0 L29.82,4.2 C34.27312,4.2 37.89604,7.82292 37.89604,12.27604 L37.89604,19.17958 L42.09604,19.17958 L42.09604,19.17958 Z" id="Path" fill="#D5D5EA"></path>
                    <polygon id="Path" fill="#4F5872" points="53.52774 17.07944 6.11226 17.07944 0.04536 71.68 59.59464 71.68"></polygon>
                    <polygon id="Path" fill="#4F5872" points="53.52774 17.07944 29.82 17.07944 29.82 71.68 59.59464 71.68"></polygon>
                    <rect id="Rectangle" fill="#FFB751" x="20.82" y="37.3197" width="18" height="18"></rect>
                </g>
            </g>
        </g>
    </g>
</svg>