<?xml version="1.0" encoding="UTF-8"?>
<svg width="61px" height="61px" viewBox="0 0 61 61" version="1.1" xmlns="http://www.w3.org/2000/svg" xmlns:xlink="http://www.w3.org/1999/xlink">
    <!-- Generator: sketchtool 61.2 (101010) - https://sketch.com -->
    <title>95B21144-75A4-46AB-9022-7AE15EB02119</title>
    <desc>Created with sketchtool.</desc>
    <g id="Page-1" stroke="none" stroke-width="1" fill="none" fill-rule="evenodd">
        <g id="1.0.1" transform="translate(-263.000000, -292.000000)" fill-rule="nonzero">
            <g id="Group-34-Copy" transform="translate(232.000000, 257.000000)">
                <g id="plane" transform="translate(61.500000, 65.500000) rotate(-360.000000) translate(-61.500000, -65.500000) translate(31.000000, 35.000000)">
                    <g id="Group" transform="translate(2.000000, 35.000000)" fill="#4F5872">
                        <path d="M9.70866332,11.128 L0.530894472,3.87272727 C0.0295477387,3.49369697 -0.134592965,2.82460606 0.166311558,2.38666667 L0.166311558,2.38666667 C1.63730653,0.245575758 4.47099497,-0.48569697 7.25523618,0.557333333 L15.5556181,5.28957576 L9.70866332,11.128 Z" id="Path"></path>
                        <path d="M12.7886231,14.2235152 L20.0263719,23.4666667 C20.4034975,23.9705455 21.0692261,24.1355152 21.5049648,23.8330909 L22.0521407,23.4533333 C23.8540704,22.2029091 24.4693869,19.7939394 23.5916382,17.4270303 L18.6166432,8.36593939 L12.7886231,14.2235152 Z" id="Path"></path>
                    </g>
                    <g id="Group" transform="translate(14.000000, 6.000000)" fill="#D5D5EA">
                        <path d="M0.967552326,11.4871512 L0.967552326,11.4871512 C-0.171508721,10.3480901 -0.261613372,8.533125 0.755997093,7.28441279 C2.21149709,5.4982907 4.0350436,3.50943314 5.12893314,2.4155436 C6.62543314,0.919043605 6.75618023,1.09782267 8.35506105,0.117755814 C8.59045349,-0.0265784884 8.89425872,0.00822383721 9.08948547,0.203450581 L12.2513721,3.36533721 C12.4465988,3.56056395 12.481282,3.86436919 12.3370669,4.09976163 C11.357,5.69864244 11.5357791,5.82927035 10.0392791,7.32577035 C8.94538953,8.41965988 6.95653198,10.2432064 5.17040988,11.6987064 C3.92157849,12.7161977 2.10649419,12.6262122 0.967552326,11.4871512 Z" id="Path"></path>
                        <path d="M29.5130872,40.032686 L29.5130872,40.032686 C28.3740262,38.893625 28.2839215,37.0786599 29.301532,35.8299477 C30.757032,34.0438256 32.5805785,32.054968 33.674468,30.9610785 C35.170968,29.4645785 35.3015959,29.6433576 36.9005959,28.6632907 C37.1359884,28.5189564 37.4397936,28.5537587 37.6350203,28.7489855 L40.796907,31.9108721 C40.9921337,32.1060988 41.0268169,32.4099041 40.8826017,32.6452965 C39.9025349,34.2441773 40.081314,34.3748052 38.584814,35.8714244 C37.4909244,36.965314 35.5020669,38.7888605 33.7159448,40.2443605 C32.4671134,41.2618517 30.6521483,41.1717471 29.5130872,40.032686 Z" id="Path"></path>
                    </g>
                    <path d="M28.8166259,29 L40,17.8868828 L5.35628061,7.07051154 C4.64289934,6.88952849 3.9336871,7.06187076 3.46175245,7.53084059 L0.534852375,10.4393531 C-0.44534707,11.4133947 -0.0246319845,13.19896 1.35912995,13.937333 L28.8166259,29 Z" id="Path" fill="#4F5872"></path>
                    <path d="M32,32.1833741 L43.1131172,21 L53.9294885,55.6437194 C54.1104715,56.3571007 53.9381292,57.0663129 53.4691594,57.5382475 L50.5606469,60.4651476 C49.5866053,61.4453471 47.80104,61.024632 47.062667,59.6408701 L32,32.1833741 Z" id="Path" fill="#4F5872"></path>
                    <path d="M53.4278033,16.2705279 L34.6576012,35.0406109 C31.5080516,38.1901606 28.1596469,41.1278838 24.6540384,43.8171275 L15.7235312,50.6679276 C13.6560814,52.2540077 11.1972287,52.4458416 9.87569358,51.1243064 L9.87569358,51.1243064 C8.55415844,49.8027713 8.74599227,47.3439186 10.3320724,45.2764688 L17.1828725,36.3459616 C19.8721162,32.8403531 22.8097204,29.4920674 25.9593891,26.3423988 L44.7295911,7.57231571 C47.295547,5.00635978 50.2425526,2.86845985 53.3558061,1.40066928 C56.0368385,0.136731889 58.8866181,-0.655118161 60.2708681,0.72913188 C61.6551182,2.11338192 60.8632681,4.96316147 59.5993307,7.6441939 C58.1316592,10.7576855 55.9937592,13.704572 53.4278033,16.2705279 Z" id="Path" fill="#E0F3FC"></path>
                    <path d="M60.2703552,0.72632223 C59.7828158,0.239092472 59.1130743,0.0222549987 58.3334161,0 C58.3895058,1.44169548 57.7639453,3.27017569 56.9354617,5.0262974 C55.46677,8.13973601 53.3273842,11.0869167 50.7595257,13.6530252 L31.9763967,32.424224 C28.824658,35.5739608 25.4739261,38.5118587 21.965881,41.2011432 L13.0291668,48.0523505 C11.7132629,49.0612041 10.2392123,49.5049949 9,49.3550415 C9.09312551,50.0423282 9.37071573,50.6551142 9.84015403,51.1242544 L9.84015403,51.1242544 C11.1626077,52.4458681 13.6231694,52.2540228 15.6920561,50.6678484 L24.6287704,43.8166411 C28.1368154,41.1272376 31.4874283,38.1894587 34.6392861,35.0396028 L53.4225342,16.268523 C55.9902735,13.7024146 58.1296594,10.7552339 59.5984701,7.64179529 C60.8631669,4.9606035 61.6555673,2.11065455 60.2703552,0.72632223 Z" id="Path" fill="#C6E2E7"></path>
                    <path d="M55.566696,12.3002216 L54.9057028,12.9612134 C54.2918358,13.5750791 47.4249197,6.70817709 48.0387867,6.09431134 L48.6997798,5.43331956 C49.1164289,5.01667138 49.7279641,4.88535663 50.2259794,5.10564632 L50.2259794,5.10564632 C52.7073422,6.20329031 54.7967237,8.29279015 55.8944926,10.7741479 L55.8944926,10.7741479 C56.1145373,11.2720394 55.983345,11.8835734 55.566696,12.3002216 Z" id="Path" fill="#00B1F2"></path>
                    <path d="M11.931698,50 C11.6932996,50 11.454777,49.9090635 11.2729035,49.7270663 C10.9090322,49.3631962 10.9090322,48.7732272 11.2729035,48.4094812 L19.4095074,40.2729026 C19.7733786,39.9090325 20.3633495,39.9090325 20.7270965,40.2729026 C21.0909678,40.6367727 21.0909678,41.2267418 20.7270965,41.5904877 L12.5904926,49.7270663 C12.4086191,49.9089393 12.1702207,50 11.931698,50 Z" id="Path" fill="#4F5872"></path>
                </g>
            </g>
        </g>
    </g>
</svg>